<svg width="100%" height="20" viewBox="0 0 800 20" xmlns="http://www.w3.org/2000/svg" preserveAspectRatio="none">
  <defs>
    <linearGradient id="dividerLine" x1="0%" y1="0%" x2="100%" y2="0%">
      <stop offset="0%" stop-color="#5FD8C9" stop-opacity="0"/>
      <stop offset="15%" stop-color="#5FD8C9" stop-opacity="0.55"/>
      <stop offset="50%" stop-color="#F2A93B" stop-opacity="0.7"/>
      <stop offset="85%" stop-color="#5FD8C9" stop-opacity="0.55"/>
      <stop offset="100%" stop-color="#5FD8C9" stop-opacity="0"/>
    </linearGradient>
  </defs>
  <line x1="0" y1="10" x2="800" y2="10" stroke="url(#dividerLine)" stroke-width="1"/>
<line x1="0" y1="1" x2="0" y2="19" stroke="#5FD8C9" stroke-opacity="0.05" stroke-width="1.6"/>
<line x1="20" y1="5" x2="20" y2="15" stroke="#5FD8C9" stroke-opacity="0.06" stroke-width="1"/>
<line x1="40" y1="5" x2="40" y2="15" stroke="#5FD8C9" stroke-opacity="0.13" stroke-width="1"/>
<line x1="60" y1="5" x2="60" y2="15" stroke="#5FD8C9" stroke-opacity="0.19" stroke-width="1"/>
<line x1="80" y1="5" x2="80" y2="15" stroke="#5FD8C9" stroke-opacity="0.25" stroke-width="1"/>
<line x1="100" y1="1" x2="100" y2="19" stroke="#5FD8C9" stroke-opacity="0.31" stroke-width="1.6"/>
<line x1="120" y1="5" x2="120" y2="15" stroke="#5FD8C9" stroke-opacity="0.37" stroke-width="1"/>
<line x1="140" y1="5" x2="140" y2="15" stroke="#5FD8C9" stroke-opacity="0.43" stroke-width="1"/>
<line x1="160" y1="5" x2="160" y2="15" stroke="#5FD8C9" stroke-opacity="0.49" stroke-width="1"/>
<line x1="180" y1="5" x2="180" y2="15" stroke="#5FD8C9" stroke-opacity="0.54" stroke-width="1"/>
<line x1="200" y1="1" x2="200" y2="19" stroke="#5FD8C9" stroke-opacity="0.59" stroke-width="1.6"/>
<line x1="220" y1="5" x2="220" y2="15" stroke="#5FD8C9" stroke-opacity="0.65" stroke-width="1"/>
<line x1="240" y1="5" x2="240" y2="15" stroke="#5FD8C9" stroke-opacity="0.70" stroke-width="1"/>
<line x1="260" y1="5" x2="260" y2="15" stroke="#5FD8C9" stroke-opacity="0.74" stroke-width="1"/>
<line x1="280" y1="5" x2="280" y2="15" stroke="#5FD8C9" stroke-opacity="0.79" stroke-width="1"/>
<line x1="300" y1="1" x2="300" y2="19" stroke="#5FD8C9" stroke-opacity="0.84" stroke-width="1.6"/>
<line x1="320" y1="5" x2="320" y2="15" stroke="#5FD8C9" stroke-opacity="0.88" stroke-width="1"/>
<line x1="340" y1="5" x2="340" y2="15" stroke="#5FD8C9" stroke-opacity="0.92" stroke-width="1"/>
<line x1="360" y1="5" x2="360" y2="15" stroke="#5FD8C9" stroke-opacity="0.95" stroke-width="1"/>
<line x1="380" y1="5" x2="380" y2="15" stroke="#5FD8C9" stroke-opacity="0.98" stroke-width="1"/>
<line x1="400" y1="1" x2="400" y2="19" stroke="#5FD8C9" stroke-opacity="1.00" stroke-width="1.6"/>
<line x1="420" y1="5" x2="420" y2="15" stroke="#5FD8C9" stroke-opacity="0.98" stroke-width="1"/>
<line x1="440" y1="5" x2="440" y2="15" stroke="#5FD8C9" stroke-opacity="0.95" stroke-width="1"/>
<line x1="460" y1="5" x2="460" y2="15" stroke="#5FD8C9" stroke-opacity="0.92" stroke-width="1"/>
<line x1="480" y1="5" x2="480" y2="15" stroke="#5FD8C9" stroke-opacity="0.88" stroke-width="1"/>
<line x1="500" y1="1" x2="500" y2="19" stroke="#5FD8C9" stroke-opacity="0.84" stroke-width="1.6"/>
<line x1="520" y1="5" x2="520" y2="15" stroke="#5FD8C9" stroke-opacity="0.79" stroke-width="1"/>
<line x1="540" y1="5" x2="540" y2="15" stroke="#5FD8C9" stroke-opacity="0.74" stroke-width="1"/>
<line x1="560" y1="5" x2="560" y2="15" stroke="#5FD8C9" stroke-opacity="0.70" stroke-width="1"/>
<line x1="580" y1="5" x2="580" y2="15" stroke="#5FD8C9" stroke-opacity="0.65" stroke-width="1"/>
<line x1="600" y1="1" x2="600" y2="19" stroke="#5FD8C9" stroke-opacity="0.59" stroke-width="1.6"/>
<line x1="620" y1="5" x2="620" y2="15" stroke="#5FD8C9" stroke-opacity="0.54" stroke-width="1"/>
<line x1="640" y1="5" x2="640" y2="15" stroke="#5FD8C9" stroke-opacity="0.49" stroke-width="1"/>
<line x1="660" y1="5" x2="660" y2="15" stroke="#5FD8C9" stroke-opacity="0.43" stroke-width="1"/>
<line x1="680" y1="5" x2="680" y2="15" stroke="#5FD8C9" stroke-opacity="0.37" stroke-width="1"/>
<line x1="700" y1="1" x2="700" y2="19" stroke="#5FD8C9" stroke-opacity="0.31" stroke-width="1.6"/>
<line x1="720" y1="5" x2="720" y2="15" stroke="#5FD8C9" stroke-opacity="0.25" stroke-width="1"/>
<line x1="740" y1="5" x2="740" y2="15" stroke="#5FD8C9" stroke-opacity="0.19" stroke-width="1"/>
<line x1="760" y1="5" x2="760" y2="15" stroke="#5FD8C9" stroke-opacity="0.13" stroke-width="1"/>
<line x1="780" y1="5" x2="780" y2="15" stroke="#5FD8C9" stroke-opacity="0.06" stroke-width="1"/>
<line x1="800" y1="1" x2="800" y2="19" stroke="#5FD8C9" stroke-opacity="0.05" stroke-width="1.6"/>
</svg>
